<svg width="26" height="26" viewBox="0 0 26 26" fill="none" xmlns="http://www.w3.org/2000/svg">
<path d="M13 26C20.1797 26 26 20.1797 26 13C26 5.8203 20.1797 0 13 0C5.8203 0 0 5.8203 0 13C0 20.1797 5.8203 26 13 26Z" fill="#0052FF"/>
<path fill-rule="evenodd" clip-rule="evenodd" d="M4 13.1C4 18.1258 8.0742 22.2 13.1 22.2C18.1258 22.2 22.2 18.1258 22.2 13.1C22.2 8.0742 18.1258 4 13.1 4C8.0742 4 4 8.0742 4 13.1ZM10.7745 10.1678C10.4394 10.1678 10.1678 10.4394 10.1678 10.7745V15.4255C10.1678 15.7606 10.4394 16.0322 10.7745 16.0322H15.4255C15.7606 16.0322 16.0322 15.7606 16.0322 15.4255V10.7745C16.0322 10.4394 15.7606 10.1678 15.4255 10.1678H10.7745Z" fill="white"/>
</svg>
